<?xml version="1.0" encoding="UTF-8"?>
<svg id="Layer_2" data-name="Layer 2" xmlns="http://www.w3.org/2000/svg" viewBox="0 0 100 28.29">
  <defs>
    <style>
      .cls-1 {
        fill: #fff;
      }
    </style>
  </defs>
  <g id="Layer_1-2" data-name="Layer 1">
    <g>
      <path class="cls-1" d="m11.46,28.29c-2.27,0-4.27-.45-6-1.35s-3.07-2.16-4.03-3.78-1.43-3.48-1.43-5.59.48-4.04,1.43-5.65c.95-1.61,2.3-2.86,4.03-3.76,1.73-.9,3.73-1.35,6-1.35s4.35.45,6.06,1.35c1.72.9,3.05,2.15,4.01,3.76.96,1.61,1.43,3.49,1.43,5.65s-.48,3.97-1.43,5.59c-.95,1.62-2.29,2.88-4.01,3.78s-3.74,1.35-6.06,1.35Zm0-3.99c2.52,0,4.33-.57,5.44-1.72,1.11-1.15,1.66-2.82,1.66-5.01s-.55-3.87-1.66-5.05c-1.11-1.18-2.92-1.77-5.44-1.77s-4.29.59-5.4,1.77c-1.11,1.18-1.66,2.86-1.66,5.05s.55,3.86,1.66,5.01c1.11,1.15,2.91,1.72,5.4,1.72Z"/>
      <path class="cls-1" d="m42.68,10.46c-.46-1.11-1.19-1.99-2.18-2.66-1-.66-2.28-1-3.86-1-1.41,0-2.61.26-3.59.79-.98.53-1.77,1.24-2.35,2.14-.58.9-.97,1.92-1.16,3.05h-.29v-5.57h-4.11v20.64h4.49v-11.59c0-1.83.39-3.23,1.16-4.2s2.05-1.45,3.82-1.45c1.55,0,2.66.35,3.32,1.04.66.69,1,1.79,1,3.28v1.83h4.44v-2.7c0-1.3-.23-2.51-.69-3.61Z"/>
      <path class="cls-1" d="m50.43,2.45h0c0,1.4-1.19,2.45-2.46,2.45h0c-1.28,0-2.46-.89-2.46-2.45h0c0-1.51,1.19-2.45,2.46-2.45h0c1.28,0,2.46.92,2.46,2.45Zm-.22,25.42h-4.49V7.23h4.49v20.64Z"/>
      <path class="cls-1" d="m64.39,28.29c-2.27,0-4.27-.45-6-1.35s-3.07-2.16-4.03-3.78-1.43-3.48-1.43-5.59.48-4.04,1.43-5.65c.95-1.61,2.3-2.86,4.03-3.76,1.73-.9,3.73-1.35,6-1.35s4.35.45,6.06,1.35c1.72.9,3.05,2.15,4.01,3.76.96,1.61,1.43,3.49,1.43,5.65s-.48,3.97-1.43,5.59c-.95,1.62-2.29,2.88-4.01,3.78s-3.74,1.35-6.06,1.35Zm0-3.99c2.52,0,4.33-.57,5.44-1.72,1.11-1.15,1.66-2.82,1.66-5.01s-.55-3.87-1.66-5.05c-1.11-1.18-2.92-1.77-5.44-1.77s-4.29.59-5.4,1.77c-1.11,1.18-1.66,2.86-1.66,5.05s.55,3.86,1.66,5.01c1.11,1.15,2.91,1.72,5.4,1.72Z"/>
      <path class="cls-1" d="m99.07,11.09c-.62-1.3-1.57-2.34-2.85-3.12s-2.87-1.16-4.78-1.16c-1.74,0-3.22.33-4.42.98-1.2.65-2.15,1.5-2.82,2.53-.68,1.04-1.13,2.14-1.35,3.3h-.29v-6.4h-4.11v20.64h4.49v-10.22c0-2.24.53-3.94,1.6-5.09,1.07-1.15,2.72-1.72,4.96-1.72s3.7.49,4.63,1.45,1.39,2.42,1.39,4.36v11.21h4.49v-12.42c0-1.61-.31-3.06-.93-4.36Z"/>
    </g>
  </g>
</svg>