<?xml version="1.0" encoding="UTF-8"?>
<svg id="Layer_2" data-name="Layer 2" xmlns="http://www.w3.org/2000/svg" viewBox="0 0 102.55 28">
  <defs>
    <style>
      .cls-1 {
        fill: #fff;
      }
    </style>
  </defs>
  <g id="Layer_1-2" data-name="Layer 1">
    <g>
      <g>
        <path class="cls-1" d="m7,1.88C.31,5.74-1.99,14.3,1.88,21s12.43,8.99,19.12,5.12c6.69-3.87,8.99-12.43,5.12-19.12C22.26.31,13.7-1.99,7,1.88Zm9.62,16.67c-2.38,1.38-5.4.67-6.94-1.56-1.09.25-2.26-.23-2.85-1.25-.72-1.26-.29-2.86.96-3.59.45-.26.95-.37,1.44-.35.44-.95,1.16-1.79,2.14-2.35,2.51-1.45,5.72-.59,7.17,1.92s.59,5.72-1.92,7.17Z"/>
        <path class="cls-1" d="m11.38,13.12c-.46-.8-1.29-1.26-2.15-1.31-.69,1.49-.66,3.28.22,4.82.07.13.15.25.23.36.25-.06.5-.15.73-.29,1.26-.72,1.69-2.33.96-3.59Z"/>
      </g>
      <g>
        <path class="cls-1" d="m44.12,22.56c-1.5,0-2.82-.3-3.96-.89s-2.03-1.43-2.66-2.49-.95-2.3-.95-3.69.32-2.67.95-3.73c.63-1.06,1.52-1.89,2.66-2.48,1.14-.59,2.46-.89,3.96-.89s2.87.3,4,.89c1.13.59,2.02,1.42,2.65,2.48.63,1.06.95,2.3.95,3.73s-.31,2.62-.95,3.69c-.63,1.07-1.51,1.9-2.65,2.49s-2.47.89-4,.89Zm0-2.63c1.66,0,2.86-.38,3.59-1.14.73-.76,1.1-1.86,1.1-3.3s-.37-2.55-1.1-3.33c-.73-.78-1.93-1.17-3.59-1.17s-2.83.39-3.56,1.17c-.73.78-1.1,1.89-1.1,3.33s.37,2.55,1.1,3.3c.73.76,1.92,1.14,3.56,1.14Z"/>
        <path class="cls-1" d="m64.72,10.8c-.3-.73-.78-1.32-1.44-1.75-.66-.44-1.51-.66-2.55-.66-.93,0-1.72.17-2.37.52-.65.35-1.17.82-1.55,1.41-.38.59-.64,1.27-.77,2.01h-.19v-3.67h-2.71v13.62h2.96v-7.65c0-1.21.26-2.13.77-2.77s1.35-.96,2.52-.96c1.02,0,1.75.23,2.19.69.44.46.66,1.18.66,2.17v1.21h2.93v-1.78c0-.86-.15-1.65-.45-2.39Z"/>
        <path class="cls-1" d="m69.83,5.5h0c0,.92-.78,1.61-1.63,1.61h0c-.84,0-1.63-.59-1.63-1.61h0c0-.99.78-1.61,1.63-1.61h0c.84,0,1.63.61,1.63,1.61Zm-.15,16.78h-2.96v-13.62h2.96v13.62Z"/>
        <path class="cls-1" d="m79.05,22.56c-1.5,0-2.82-.3-3.96-.89s-2.03-1.43-2.66-2.49-.95-2.3-.95-3.69.32-2.67.95-3.73c.63-1.06,1.52-1.89,2.66-2.48,1.14-.59,2.46-.89,3.96-.89s2.87.3,4,.89c1.13.59,2.02,1.42,2.65,2.48.63,1.06.95,2.3.95,3.73s-.31,2.62-.95,3.69c-.63,1.07-1.51,1.9-2.65,2.49s-2.47.89-4,.89Zm0-2.63c1.66,0,2.86-.38,3.59-1.14.73-.76,1.1-1.86,1.1-3.3s-.37-2.55-1.1-3.33c-.73-.78-1.93-1.17-3.59-1.17s-2.83.39-3.56,1.17c-.73.78-1.1,1.89-1.1,3.33s.37,2.55,1.1,3.3c.73.76,1.92,1.14,3.56,1.14Z"/>
        <path class="cls-1" d="m101.93,11.21c-.41-.86-1.04-1.54-1.88-2.06s-1.89-.77-3.15-.77c-1.15,0-2.12.22-2.92.64-.79.43-1.42.99-1.86,1.67-.45.69-.74,1.41-.89,2.18h-.19v-4.22h-2.71v13.62h2.96v-6.74c0-1.48.35-2.6,1.06-3.36.7-.76,1.8-1.14,3.28-1.14s2.44.32,3.06.96.92,1.6.92,2.88v7.4h2.96v-8.2c0-1.06-.21-2.02-.62-2.88Z"/>
      </g>
    </g>
  </g>
</svg>