<?xml version="1.0" encoding="UTF-8"?>
<svg id="Layer_2" data-name="Layer 2" xmlns="http://www.w3.org/2000/svg" viewBox="0 0 100 100">
  <defs>
    <style>
      .cls-1 {
        fill: #fff;
      }
    </style>
  </defs>
  <g id="Layer_1-2" data-name="Layer 1">
    <g>
      <path class="cls-1" d="m25,6.71C1.09,20.51-7.1,51.09,6.71,75c13.8,23.91,44.38,32.1,68.29,18.3,23.91-13.8,32.1-44.38,18.3-68.29C79.49,1.09,48.91-7.1,25,6.71Zm34.36,59.54c-8.52,4.92-19.27,2.38-24.77-5.56-3.9.89-8.09-.81-10.19-4.46-2.59-4.48-1.05-10.22,3.43-12.8,1.62-.93,3.4-1.32,5.14-1.24,1.56-3.41,4.15-6.39,7.65-8.41,8.97-5.18,20.43-2.1,25.61,6.86s2.1,20.43-6.86,25.61Z"/>
      <path class="cls-1" d="m40.63,46.85c-1.65-2.86-4.59-4.52-7.66-4.67-2.45,5.34-2.37,11.73.78,17.2.26.45.55.88.84,1.3.89-.2,1.77-.54,2.61-1.02,4.48-2.59,6.02-8.32,3.43-12.8Z"/>
    </g>
  </g>
</svg>